G04 MADE WITH FRITZING*
G04 WWW.FRITZING.ORG*
G04 DOUBLE SIDED*
G04 HOLES PLATED*
G04 CONTOUR ON CENTER OF CONTOUR VECTOR*
%ASAXBY*%
%FSLAX23Y23*%
%MOIN*%
%OFA0B0*%
%SFA1.0B1.0*%
%ADD10R,0.055000X0.400000*%
%ADD11R,0.001000X0.001000*%
%LNPASTEMASK0*%
G90*
G70*
G54D10*
X2482Y232D03*
X2382Y232D03*
X2282Y232D03*
X2182Y232D03*
X2082Y232D03*
X1982Y232D03*
X1882Y232D03*
X1782Y232D03*
X1682Y232D03*
X1582Y232D03*
X1482Y232D03*
X1382Y232D03*
X1282Y232D03*
X1182Y232D03*
X1082Y232D03*
X982Y232D03*
X882Y232D03*
X782Y232D03*
X682Y232D03*
X582Y232D03*
X482Y232D03*
X382Y232D03*
X282Y232D03*
X182Y232D03*
X82Y232D03*
X2482Y3232D03*
X2382Y3232D03*
X2282Y3232D03*
X2182Y3232D03*
X2082Y3232D03*
X1982Y3232D03*
X1882Y3232D03*
X1782Y3232D03*
X1682Y3232D03*
X1582Y3232D03*
X1482Y3232D03*
X1382Y3232D03*
X1282Y3232D03*
X1182Y3232D03*
X1082Y3232D03*
X982Y3232D03*
X882Y3232D03*
X782Y3232D03*
X682Y3232D03*
X582Y3232D03*
X482Y3232D03*
X382Y3232D03*
X282Y3232D03*
X182Y3232D03*
X82Y3232D03*
G54D11*
D02*
G04 End of PasteMask0*
M02*