G04 MADE WITH FRITZING*
G04 WWW.FRITZING.ORG*
G04 DOUBLE SIDED*
G04 HOLES PLATED*
G04 CONTOUR ON CENTER OF CONTOUR VECTOR*
%ASAXBY*%
%FSLAX23Y23*%
%MOIN*%
%OFA0B0*%
%SFA1.0B1.0*%
%ADD10C,0.067559*%
%ADD11R,0.055000X0.400000*%
%ADD12C,0.018000*%
%ADD13C,0.032000*%
%ADD14C,0.012000*%
%ADD15C,0.008000*%
%ADD16R,0.001000X0.001000*%
%LNCOPPER0*%
G90*
G70*
G54D10*
X2430Y1291D03*
X2430Y1191D03*
X2430Y1782D03*
X2430Y1682D03*
X2482Y2632D03*
X2382Y2632D03*
X2282Y2632D03*
X2182Y2632D03*
X2082Y2632D03*
X1982Y2632D03*
X1882Y2632D03*
X1782Y2632D03*
X1682Y2632D03*
X1582Y2632D03*
X1482Y2632D03*
X1382Y2632D03*
X1282Y2632D03*
X1182Y2632D03*
X1082Y2632D03*
X982Y2632D03*
X882Y2632D03*
X782Y2632D03*
X682Y2632D03*
X582Y2632D03*
X482Y2632D03*
X382Y2632D03*
X282Y2632D03*
X182Y2632D03*
X82Y2632D03*
X2482Y2632D03*
X2382Y2632D03*
X2282Y2632D03*
X2182Y2632D03*
X2082Y2632D03*
X1982Y2632D03*
X1882Y2632D03*
X1782Y2632D03*
X1682Y2632D03*
X1582Y2632D03*
X1482Y2632D03*
X1382Y2632D03*
X1282Y2632D03*
X1182Y2632D03*
X1082Y2632D03*
X982Y2632D03*
X882Y2632D03*
X782Y2632D03*
X682Y2632D03*
X582Y2632D03*
X482Y2632D03*
X382Y2632D03*
X282Y2632D03*
X182Y2632D03*
X82Y2632D03*
X2482Y2432D03*
X2382Y2432D03*
X2282Y2432D03*
X2182Y2432D03*
X2082Y2432D03*
X1982Y2432D03*
X1882Y2432D03*
X1782Y2432D03*
X1682Y2432D03*
X1582Y2432D03*
X1482Y2432D03*
X1382Y2432D03*
X1282Y2432D03*
X1182Y2432D03*
X1082Y2432D03*
X982Y2432D03*
X882Y2432D03*
X782Y2432D03*
X682Y2432D03*
X582Y2432D03*
X482Y2432D03*
X382Y2432D03*
X282Y2432D03*
X182Y2432D03*
X82Y2432D03*
X2482Y2432D03*
X2382Y2432D03*
X2282Y2432D03*
X2182Y2432D03*
X2082Y2432D03*
X1982Y2432D03*
X1882Y2432D03*
X1782Y2432D03*
X1682Y2432D03*
X1582Y2432D03*
X1482Y2432D03*
X1382Y2432D03*
X1282Y2432D03*
X1182Y2432D03*
X1082Y2432D03*
X982Y2432D03*
X882Y2432D03*
X782Y2432D03*
X682Y2432D03*
X582Y2432D03*
X482Y2432D03*
X382Y2432D03*
X282Y2432D03*
X182Y2432D03*
X82Y2432D03*
G54D11*
X2482Y232D03*
X2382Y232D03*
X2282Y232D03*
X2182Y232D03*
X2082Y232D03*
X1982Y232D03*
X1882Y232D03*
X1782Y232D03*
X1682Y232D03*
X1582Y232D03*
X1482Y232D03*
X1382Y232D03*
X1282Y232D03*
X1182Y232D03*
X1082Y232D03*
X982Y232D03*
X882Y232D03*
X782Y232D03*
X682Y232D03*
X582Y232D03*
X482Y232D03*
X382Y232D03*
X282Y232D03*
X182Y232D03*
X82Y232D03*
X2482Y3232D03*
X2382Y3232D03*
X2282Y3232D03*
X2182Y3232D03*
X2082Y3232D03*
X1982Y3232D03*
X1882Y3232D03*
X1782Y3232D03*
X1682Y3232D03*
X1582Y3232D03*
X1482Y3232D03*
X1382Y3232D03*
X1282Y3232D03*
X1182Y3232D03*
X1082Y3232D03*
X982Y3232D03*
X882Y3232D03*
X782Y3232D03*
X682Y3232D03*
X582Y3232D03*
X482Y3232D03*
X382Y3232D03*
X282Y3232D03*
X182Y3232D03*
X82Y3232D03*
G54D12*
X2482Y1183D02*
X2455Y1187D01*
D02*
X2482Y426D02*
X2482Y1183D01*
G54D13*
D02*
X2430Y1260D02*
X2430Y1221D01*
G54D12*
D02*
X2482Y1283D02*
X2455Y1287D01*
D02*
X2482Y426D02*
X2482Y1283D01*
D02*
X2482Y2407D02*
X2482Y426D01*
D02*
X2482Y2457D02*
X2482Y2531D01*
D02*
X2482Y2733D02*
X2482Y3037D01*
D02*
X2434Y2582D02*
X2434Y2681D01*
D02*
X2482Y2531D02*
X2434Y2582D01*
D02*
X2434Y2681D02*
X2482Y2733D01*
G54D14*
D02*
X2382Y2413D02*
X2382Y426D01*
D02*
X2332Y2683D02*
X2382Y2733D01*
D02*
X2382Y2733D02*
X2382Y3037D01*
D02*
X2382Y2531D02*
X2332Y2583D01*
D02*
X2332Y2583D02*
X2332Y2683D01*
D02*
X2382Y2451D02*
X2382Y2531D01*
D02*
X2282Y2531D02*
X2232Y2581D01*
D02*
X2282Y2733D02*
X2282Y3037D01*
D02*
X2232Y2683D02*
X2282Y2733D01*
D02*
X2232Y2581D02*
X2232Y2683D01*
D02*
X2282Y2451D02*
X2282Y2531D01*
D02*
X2182Y2531D02*
X2182Y2451D01*
D02*
X2132Y2581D02*
X2182Y2531D01*
D02*
X2182Y2733D02*
X2132Y2683D01*
D02*
X2132Y2683D02*
X2132Y2581D01*
D02*
X2182Y3037D02*
X2182Y2733D01*
D02*
X2082Y2531D02*
X2082Y2451D01*
D02*
X2032Y2581D02*
X2082Y2531D01*
D02*
X2082Y2733D02*
X2032Y2683D01*
D02*
X2032Y2683D02*
X2032Y2581D01*
D02*
X2082Y3037D02*
X2082Y2733D01*
D02*
X1983Y2531D02*
X1982Y2451D01*
D02*
X1933Y2581D02*
X1983Y2531D01*
D02*
X1983Y2733D02*
X1933Y2683D01*
D02*
X1933Y2683D02*
X1933Y2581D01*
D02*
X1982Y3037D02*
X1983Y2733D01*
D02*
X1883Y2531D02*
X1882Y2451D01*
D02*
X1833Y2581D02*
X1883Y2531D01*
D02*
X1883Y2733D02*
X1833Y2683D01*
D02*
X1833Y2683D02*
X1833Y2581D01*
D02*
X1883Y3037D02*
X1883Y2733D01*
G54D12*
D02*
X1783Y2531D02*
X1783Y2457D01*
D02*
X1783Y2733D02*
X1733Y2683D01*
D02*
X1733Y2583D02*
X1783Y2531D01*
D02*
X1733Y2683D02*
X1733Y2583D01*
D02*
X1783Y3037D02*
X1783Y2733D01*
D02*
X1683Y2531D02*
X1683Y2457D01*
D02*
X1633Y2581D02*
X1683Y2531D01*
D02*
X1683Y2733D02*
X1633Y2683D01*
D02*
X1633Y2683D02*
X1633Y2581D01*
D02*
X1683Y3037D02*
X1683Y2733D01*
G54D14*
D02*
X1583Y2531D02*
X1583Y2451D01*
D02*
X1531Y2581D02*
X1583Y2531D01*
D02*
X1583Y2733D02*
X1531Y2683D01*
D02*
X1531Y2683D02*
X1531Y2581D01*
D02*
X1583Y3037D02*
X1583Y2733D01*
D02*
X1481Y2531D02*
X1482Y2451D01*
D02*
X1432Y2583D02*
X1481Y2531D01*
D02*
X1481Y2733D02*
X1432Y2683D01*
D02*
X1432Y2683D02*
X1432Y2583D01*
D02*
X1482Y3037D02*
X1481Y2733D01*
D02*
X1285Y2514D02*
X1283Y2451D01*
D02*
X1232Y2583D02*
X1285Y2514D01*
D02*
X1282Y2733D02*
X1232Y2683D01*
D02*
X1232Y2683D02*
X1232Y2583D01*
D02*
X1282Y3037D02*
X1282Y2733D01*
D02*
X1182Y2531D02*
X1182Y2451D01*
D02*
X1132Y2581D02*
X1182Y2531D01*
D02*
X1182Y2733D02*
X1132Y2683D01*
D02*
X1132Y2683D02*
X1132Y2581D01*
D02*
X1182Y3037D02*
X1182Y2733D01*
D02*
X1082Y2531D02*
X1082Y2451D01*
D02*
X1032Y2581D02*
X1082Y2531D01*
D02*
X1082Y2733D02*
X1032Y2683D01*
D02*
X1032Y2683D02*
X1032Y2581D01*
D02*
X1082Y3037D02*
X1082Y2733D01*
D02*
X983Y2531D02*
X982Y2451D01*
D02*
X933Y2581D02*
X983Y2531D01*
D02*
X983Y2733D02*
X933Y2683D01*
D02*
X933Y2683D02*
X933Y2581D01*
D02*
X982Y3037D02*
X983Y2733D01*
D02*
X883Y2531D02*
X882Y2451D01*
D02*
X833Y2581D02*
X883Y2531D01*
D02*
X883Y2733D02*
X833Y2683D01*
D02*
X833Y2683D02*
X833Y2581D01*
D02*
X883Y3037D02*
X883Y2733D01*
D02*
X783Y2531D02*
X782Y2451D01*
D02*
X733Y2581D02*
X783Y2531D01*
D02*
X783Y2733D02*
X733Y2683D01*
D02*
X733Y2683D02*
X733Y2581D01*
D02*
X783Y3037D02*
X783Y2733D01*
D02*
X633Y2583D02*
X683Y2531D01*
D02*
X683Y2531D02*
X683Y2451D01*
D02*
X683Y2733D02*
X633Y2683D01*
D02*
X633Y2683D02*
X633Y2583D01*
D02*
X683Y3037D02*
X683Y2733D01*
D02*
X583Y2531D02*
X583Y2451D01*
D02*
X531Y2581D02*
X583Y2531D01*
D02*
X583Y2733D02*
X531Y2683D01*
D02*
X531Y2683D02*
X531Y2581D01*
D02*
X583Y3037D02*
X583Y2733D01*
G54D15*
D02*
X481Y2531D02*
X482Y2451D01*
D02*
X432Y2581D02*
X481Y2531D01*
D02*
X481Y2733D02*
X432Y2683D01*
D02*
X432Y2683D02*
X432Y2581D01*
D02*
X482Y3037D02*
X481Y2733D01*
G54D14*
D02*
X382Y2531D02*
X382Y2451D01*
D02*
X332Y2583D02*
X382Y2531D01*
D02*
X382Y2733D02*
X332Y2683D01*
D02*
X332Y2683D02*
X332Y2583D01*
D02*
X382Y3037D02*
X382Y2733D01*
D02*
X282Y2531D02*
X282Y2451D01*
D02*
X232Y2581D02*
X282Y2531D01*
D02*
X282Y2733D02*
X232Y2683D01*
D02*
X232Y2683D02*
X232Y2581D01*
D02*
X282Y3037D02*
X282Y2733D01*
D02*
X182Y2531D02*
X182Y2451D01*
D02*
X132Y2581D02*
X182Y2531D01*
D02*
X182Y2733D02*
X132Y2683D01*
D02*
X132Y2683D02*
X132Y2581D01*
D02*
X182Y3037D02*
X182Y2733D01*
G54D12*
D02*
X82Y2531D02*
X82Y2457D01*
D02*
X82Y2733D02*
X32Y2683D01*
D02*
X32Y2581D02*
X82Y2531D01*
D02*
X32Y2683D02*
X32Y2581D01*
D02*
X82Y3037D02*
X82Y2733D01*
G54D14*
D02*
X2282Y426D02*
X2282Y2413D01*
D02*
X2182Y426D02*
X2182Y2413D01*
D02*
X2082Y426D02*
X2082Y2413D01*
D02*
X1982Y426D02*
X1982Y2413D01*
D02*
X1882Y2413D02*
X1882Y426D01*
G54D12*
D02*
X1782Y426D02*
X1782Y2407D01*
D02*
X1682Y2407D02*
X1682Y426D01*
G54D14*
D02*
X1582Y426D02*
X1582Y2413D01*
D02*
X1482Y2413D02*
X1482Y426D01*
D02*
X1182Y426D02*
X1182Y2413D01*
D02*
X1082Y2413D02*
X1082Y426D01*
D02*
X982Y426D02*
X982Y2413D01*
D02*
X882Y2413D02*
X882Y426D01*
D02*
X782Y426D02*
X782Y2413D01*
D02*
X682Y2413D02*
X682Y426D01*
D02*
X582Y426D02*
X582Y2413D01*
D02*
X482Y2413D02*
X482Y426D01*
D02*
X382Y426D02*
X382Y2413D01*
D02*
X282Y2413D02*
X282Y426D01*
D02*
X182Y426D02*
X182Y2413D01*
G54D12*
D02*
X82Y2407D02*
X82Y426D01*
G54D14*
D02*
X1382Y426D02*
X1382Y2413D01*
D02*
X1282Y426D02*
X1282Y2413D01*
D02*
X1384Y2531D02*
X1332Y2583D01*
D02*
X1332Y2583D02*
X1332Y2682D01*
D02*
X1384Y2731D02*
X1383Y3037D01*
D02*
X1332Y2682D02*
X1384Y2731D01*
D02*
X1383Y2451D02*
X1384Y2531D01*
G54D16*
D02*
G04 End of Copper0*
M02*