; NON-PLATED HOLES START AT T1
; THROUGH (PLATED) HOLES START AT T100
M48
INCH
T100C0.027559
%
T100
X020823Y024319
X023823Y024319
X024823Y024319
X021823Y024319
X022823Y024319
X017823Y024319
X018823Y024319
X015823Y024319
X016823Y024319
X019823Y024319
X010823Y024319
X020823Y026319
X013823Y024319
X023823Y026319
X014823Y024319
X024823Y026319
X011823Y024319
X021823Y026319
X012823Y024319
X022823Y026319
X017823Y026319
X018823Y026319
X015823Y026319
X016823Y026319
X019823Y026319
X010823Y026319
X013823Y026319
X014823Y026319
X011823Y026319
X012823Y026319
X024303Y017819
X007823Y024319
X008823Y024319
X005823Y024319
X006823Y024319
X009823Y024319
X000823Y024319
X003823Y024319
X004823Y024319
X024303Y016819
X001823Y024319
X002823Y024319
X007823Y026319
X008823Y026319
X005823Y026319
X006823Y026319
X009823Y026319
X000823Y026319
X024303Y011905
X003823Y026319
X004823Y026319
X001823Y026319
X002823Y026319
X024303Y012905
T00
M30
