G04 MADE WITH FRITZING*
G04 WWW.FRITZING.ORG*
G04 DOUBLE SIDED*
G04 HOLES PLATED*
G04 CONTOUR ON CENTER OF CONTOUR VECTOR*
%ASAXBY*%
%FSLAX23Y23*%
%MOIN*%
%OFA0B0*%
%SFA1.0B1.0*%
%ADD10C,0.077559*%
%ADD11R,0.065000X0.410000*%
%ADD12R,0.001000X0.001000*%
%LNMASK0*%
G90*
G70*
G54D10*
X2430Y1291D03*
X2430Y1191D03*
X2430Y1782D03*
X2430Y1682D03*
X2482Y2632D03*
X2382Y2632D03*
X2282Y2632D03*
X2182Y2632D03*
X2082Y2632D03*
X1982Y2632D03*
X1882Y2632D03*
X1782Y2632D03*
X1682Y2632D03*
X1582Y2632D03*
X1482Y2632D03*
X1382Y2632D03*
X1282Y2632D03*
X1182Y2632D03*
X1082Y2632D03*
X982Y2632D03*
X882Y2632D03*
X782Y2632D03*
X682Y2632D03*
X582Y2632D03*
X482Y2632D03*
X382Y2632D03*
X282Y2632D03*
X182Y2632D03*
X82Y2632D03*
X2482Y2632D03*
X2382Y2632D03*
X2282Y2632D03*
X2182Y2632D03*
X2082Y2632D03*
X1982Y2632D03*
X1882Y2632D03*
X1782Y2632D03*
X1682Y2632D03*
X1582Y2632D03*
X1482Y2632D03*
X1382Y2632D03*
X1282Y2632D03*
X1182Y2632D03*
X1082Y2632D03*
X982Y2632D03*
X882Y2632D03*
X782Y2632D03*
X682Y2632D03*
X582Y2632D03*
X482Y2632D03*
X382Y2632D03*
X282Y2632D03*
X182Y2632D03*
X82Y2632D03*
X2482Y2432D03*
X2382Y2432D03*
X2282Y2432D03*
X2182Y2432D03*
X2082Y2432D03*
X1982Y2432D03*
X1882Y2432D03*
X1782Y2432D03*
X1682Y2432D03*
X1582Y2432D03*
X1482Y2432D03*
X1382Y2432D03*
X1282Y2432D03*
X1182Y2432D03*
X1082Y2432D03*
X982Y2432D03*
X882Y2432D03*
X782Y2432D03*
X682Y2432D03*
X582Y2432D03*
X482Y2432D03*
X382Y2432D03*
X282Y2432D03*
X182Y2432D03*
X82Y2432D03*
X2482Y2432D03*
X2382Y2432D03*
X2282Y2432D03*
X2182Y2432D03*
X2082Y2432D03*
X1982Y2432D03*
X1882Y2432D03*
X1782Y2432D03*
X1682Y2432D03*
X1582Y2432D03*
X1482Y2432D03*
X1382Y2432D03*
X1282Y2432D03*
X1182Y2432D03*
X1082Y2432D03*
X982Y2432D03*
X882Y2432D03*
X782Y2432D03*
X682Y2432D03*
X582Y2432D03*
X482Y2432D03*
X382Y2432D03*
X282Y2432D03*
X182Y2432D03*
X82Y2432D03*
G54D11*
X2482Y232D03*
X2382Y232D03*
X2282Y232D03*
X2182Y232D03*
X2082Y232D03*
X1982Y232D03*
X1882Y232D03*
X1782Y232D03*
X1682Y232D03*
X1582Y232D03*
X1482Y232D03*
X1382Y232D03*
X1282Y232D03*
X1182Y232D03*
X1082Y232D03*
X982Y232D03*
X882Y232D03*
X782Y232D03*
X682Y232D03*
X582Y232D03*
X482Y232D03*
X382Y232D03*
X282Y232D03*
X182Y232D03*
X82Y232D03*
X2482Y3232D03*
X2382Y3232D03*
X2282Y3232D03*
X2182Y3232D03*
X2082Y3232D03*
X1982Y3232D03*
X1882Y3232D03*
X1782Y3232D03*
X1682Y3232D03*
X1582Y3232D03*
X1482Y3232D03*
X1382Y3232D03*
X1282Y3232D03*
X1182Y3232D03*
X1082Y3232D03*
X982Y3232D03*
X882Y3232D03*
X782Y3232D03*
X682Y3232D03*
X582Y3232D03*
X482Y3232D03*
X382Y3232D03*
X282Y3232D03*
X182Y3232D03*
X82Y3232D03*
G54D12*
X0Y3461D02*
X2562Y3461D01*
X0Y3460D02*
X2562Y3460D01*
X0Y3459D02*
X2562Y3459D01*
X0Y3458D02*
X2562Y3458D01*
X0Y3457D02*
X2562Y3457D01*
X0Y3456D02*
X2562Y3456D01*
X0Y3455D02*
X2562Y3455D01*
X0Y3454D02*
X2562Y3454D01*
X0Y3453D02*
X2562Y3453D01*
X0Y3452D02*
X2562Y3452D01*
X0Y3451D02*
X2562Y3451D01*
X0Y3450D02*
X2562Y3450D01*
X0Y3449D02*
X2562Y3449D01*
X0Y3448D02*
X2562Y3448D01*
X0Y3447D02*
X2562Y3447D01*
X0Y3446D02*
X2562Y3446D01*
X0Y3445D02*
X2562Y3445D01*
X0Y3444D02*
X2562Y3444D01*
X0Y3443D02*
X2562Y3443D01*
X0Y3442D02*
X2562Y3442D01*
X0Y3441D02*
X2562Y3441D01*
X0Y3440D02*
X2562Y3440D01*
X0Y3439D02*
X2562Y3439D01*
X0Y3438D02*
X2562Y3438D01*
X0Y3437D02*
X2562Y3437D01*
X0Y3436D02*
X2562Y3436D01*
X0Y3435D02*
X2562Y3435D01*
X0Y3434D02*
X2562Y3434D01*
X0Y3433D02*
X2562Y3433D01*
X0Y3432D02*
X2562Y3432D01*
X0Y3431D02*
X2562Y3431D01*
X0Y3430D02*
X2562Y3430D01*
X0Y3429D02*
X2562Y3429D01*
X0Y3428D02*
X2562Y3428D01*
X0Y3427D02*
X2562Y3427D01*
X0Y3426D02*
X2562Y3426D01*
X0Y3425D02*
X2562Y3425D01*
X0Y3424D02*
X2562Y3424D01*
X0Y3423D02*
X2562Y3423D01*
X0Y3422D02*
X2562Y3422D01*
X0Y3421D02*
X2562Y3421D01*
X0Y3420D02*
X2562Y3420D01*
X0Y3419D02*
X2562Y3419D01*
X0Y3418D02*
X2562Y3418D01*
X0Y3417D02*
X2562Y3417D01*
X0Y3416D02*
X2562Y3416D01*
X0Y3415D02*
X2562Y3415D01*
X0Y3414D02*
X2562Y3414D01*
X0Y3413D02*
X2562Y3413D01*
X0Y3412D02*
X2562Y3412D01*
X0Y3411D02*
X2562Y3411D01*
X0Y3410D02*
X2562Y3410D01*
X0Y3409D02*
X2562Y3409D01*
X0Y3408D02*
X2562Y3408D01*
X0Y3407D02*
X2562Y3407D01*
X0Y3406D02*
X2562Y3406D01*
X0Y3405D02*
X2562Y3405D01*
X0Y3404D02*
X2562Y3404D01*
X0Y3403D02*
X2562Y3403D01*
X0Y3402D02*
X2562Y3402D01*
X0Y3401D02*
X2562Y3401D01*
X0Y3400D02*
X2562Y3400D01*
X0Y3399D02*
X2562Y3399D01*
X0Y3398D02*
X2562Y3398D01*
X0Y3397D02*
X2562Y3397D01*
X0Y3396D02*
X2562Y3396D01*
X0Y3395D02*
X2562Y3395D01*
X0Y3394D02*
X2562Y3394D01*
X0Y3393D02*
X2562Y3393D01*
X0Y3392D02*
X2562Y3392D01*
X0Y3391D02*
X2562Y3391D01*
X0Y3390D02*
X2562Y3390D01*
X0Y3389D02*
X2562Y3389D01*
X0Y3388D02*
X2562Y3388D01*
X0Y3387D02*
X2562Y3387D01*
X0Y3386D02*
X2562Y3386D01*
X0Y3385D02*
X2562Y3385D01*
X0Y3384D02*
X2562Y3384D01*
X0Y3383D02*
X2562Y3383D01*
X0Y3382D02*
X2562Y3382D01*
X0Y3381D02*
X2562Y3381D01*
X0Y3380D02*
X2562Y3380D01*
X0Y3379D02*
X2562Y3379D01*
X0Y3378D02*
X2562Y3378D01*
X0Y3377D02*
X2562Y3377D01*
X0Y3376D02*
X2562Y3376D01*
X0Y3375D02*
X2562Y3375D01*
X0Y3374D02*
X2562Y3374D01*
X0Y3373D02*
X2562Y3373D01*
X0Y3372D02*
X2562Y3372D01*
X0Y3371D02*
X2562Y3371D01*
X0Y3370D02*
X2562Y3370D01*
X0Y3369D02*
X2562Y3369D01*
X0Y3368D02*
X2562Y3368D01*
X0Y3367D02*
X2562Y3367D01*
X0Y3366D02*
X2562Y3366D01*
X0Y3365D02*
X2562Y3365D01*
X0Y3364D02*
X2562Y3364D01*
X0Y3363D02*
X2562Y3363D01*
X0Y3362D02*
X2562Y3362D01*
X0Y3361D02*
X2562Y3361D01*
X0Y3360D02*
X2562Y3360D01*
X0Y3359D02*
X2562Y3359D01*
X0Y3358D02*
X2562Y3358D01*
X0Y3357D02*
X2562Y3357D01*
X0Y3356D02*
X2562Y3356D01*
X0Y3355D02*
X2562Y3355D01*
X0Y3354D02*
X2562Y3354D01*
X0Y3353D02*
X2562Y3353D01*
X0Y3352D02*
X2562Y3352D01*
X0Y3351D02*
X2562Y3351D01*
X0Y3350D02*
X2562Y3350D01*
X0Y3349D02*
X2562Y3349D01*
X0Y3348D02*
X2562Y3348D01*
X0Y3347D02*
X2562Y3347D01*
X0Y3346D02*
X2562Y3346D01*
X0Y3345D02*
X2562Y3345D01*
X0Y3344D02*
X2562Y3344D01*
X0Y3343D02*
X2562Y3343D01*
X0Y3342D02*
X2562Y3342D01*
X0Y3341D02*
X2562Y3341D01*
X0Y3340D02*
X2562Y3340D01*
X0Y3339D02*
X2562Y3339D01*
X0Y3338D02*
X2562Y3338D01*
X0Y3337D02*
X2562Y3337D01*
X0Y3336D02*
X2562Y3336D01*
X0Y3335D02*
X2562Y3335D01*
X0Y3334D02*
X2562Y3334D01*
X0Y3333D02*
X2562Y3333D01*
X0Y3332D02*
X2562Y3332D01*
X0Y3331D02*
X2562Y3331D01*
X0Y3330D02*
X2562Y3330D01*
X0Y3329D02*
X2562Y3329D01*
X0Y3328D02*
X2562Y3328D01*
X0Y3327D02*
X2562Y3327D01*
X0Y3326D02*
X2562Y3326D01*
X0Y3325D02*
X2562Y3325D01*
X0Y3324D02*
X2562Y3324D01*
X0Y3323D02*
X2562Y3323D01*
X0Y3322D02*
X2562Y3322D01*
X0Y3321D02*
X2562Y3321D01*
X0Y3320D02*
X2562Y3320D01*
X0Y3319D02*
X2562Y3319D01*
X0Y3318D02*
X2562Y3318D01*
X0Y3317D02*
X2562Y3317D01*
X0Y3316D02*
X2562Y3316D01*
X0Y3315D02*
X2562Y3315D01*
X0Y3314D02*
X2562Y3314D01*
X0Y3313D02*
X2562Y3313D01*
X0Y3312D02*
X2562Y3312D01*
X0Y3311D02*
X2562Y3311D01*
X0Y3310D02*
X2562Y3310D01*
X0Y3309D02*
X2562Y3309D01*
X0Y3308D02*
X2562Y3308D01*
X0Y3307D02*
X2562Y3307D01*
X0Y3306D02*
X2562Y3306D01*
X0Y3305D02*
X2562Y3305D01*
X0Y3304D02*
X2562Y3304D01*
X0Y3303D02*
X2562Y3303D01*
X0Y3302D02*
X2562Y3302D01*
X0Y3301D02*
X2562Y3301D01*
X0Y3300D02*
X2562Y3300D01*
X0Y3299D02*
X2562Y3299D01*
X0Y3298D02*
X2562Y3298D01*
X0Y3297D02*
X2562Y3297D01*
X0Y3296D02*
X2562Y3296D01*
X0Y3295D02*
X2562Y3295D01*
X0Y3294D02*
X2562Y3294D01*
X0Y3293D02*
X2562Y3293D01*
X0Y3292D02*
X2562Y3292D01*
X0Y3291D02*
X2562Y3291D01*
X0Y3290D02*
X2562Y3290D01*
X0Y3289D02*
X2562Y3289D01*
X0Y3288D02*
X2562Y3288D01*
X0Y3287D02*
X2562Y3287D01*
X0Y3286D02*
X2562Y3286D01*
X0Y3285D02*
X2562Y3285D01*
X0Y3284D02*
X2562Y3284D01*
X0Y3283D02*
X2562Y3283D01*
X0Y3282D02*
X2562Y3282D01*
X0Y3281D02*
X2562Y3281D01*
X0Y3280D02*
X2562Y3280D01*
X0Y3279D02*
X2562Y3279D01*
X0Y3278D02*
X2562Y3278D01*
X0Y3277D02*
X2562Y3277D01*
X0Y3276D02*
X2562Y3276D01*
X0Y3275D02*
X2562Y3275D01*
X0Y3274D02*
X2562Y3274D01*
X0Y3273D02*
X2562Y3273D01*
X0Y3272D02*
X2562Y3272D01*
X0Y3271D02*
X2562Y3271D01*
X0Y3270D02*
X2562Y3270D01*
X0Y3269D02*
X2562Y3269D01*
X0Y3268D02*
X2562Y3268D01*
X0Y3267D02*
X2562Y3267D01*
X0Y3266D02*
X2562Y3266D01*
X0Y3265D02*
X2562Y3265D01*
X0Y3264D02*
X2562Y3264D01*
X0Y3263D02*
X2562Y3263D01*
X0Y3262D02*
X2562Y3262D01*
X0Y3261D02*
X2562Y3261D01*
X0Y3260D02*
X2562Y3260D01*
X0Y3259D02*
X2562Y3259D01*
X0Y3258D02*
X2562Y3258D01*
X0Y3257D02*
X2562Y3257D01*
X0Y3256D02*
X2562Y3256D01*
X0Y3255D02*
X2562Y3255D01*
X0Y3254D02*
X2562Y3254D01*
X0Y3253D02*
X2562Y3253D01*
X0Y3252D02*
X2562Y3252D01*
X0Y3251D02*
X2562Y3251D01*
X0Y3250D02*
X2562Y3250D01*
X0Y3249D02*
X2562Y3249D01*
X0Y3248D02*
X2562Y3248D01*
X0Y3247D02*
X2562Y3247D01*
X0Y3246D02*
X2562Y3246D01*
X0Y3245D02*
X2562Y3245D01*
X0Y3244D02*
X2562Y3244D01*
X0Y3243D02*
X2562Y3243D01*
X0Y3242D02*
X2562Y3242D01*
X0Y3241D02*
X2562Y3241D01*
X0Y3240D02*
X2562Y3240D01*
X0Y3239D02*
X2562Y3239D01*
X0Y3238D02*
X2562Y3238D01*
X0Y3237D02*
X2562Y3237D01*
X0Y3236D02*
X2562Y3236D01*
X0Y3235D02*
X2562Y3235D01*
X0Y3234D02*
X2562Y3234D01*
X0Y3233D02*
X2562Y3233D01*
X0Y3232D02*
X2562Y3232D01*
X0Y3231D02*
X2562Y3231D01*
X0Y3230D02*
X2562Y3230D01*
X0Y3229D02*
X2562Y3229D01*
X0Y3228D02*
X2562Y3228D01*
X0Y3227D02*
X2562Y3227D01*
X0Y3226D02*
X2562Y3226D01*
X0Y3225D02*
X2562Y3225D01*
X0Y3224D02*
X2562Y3224D01*
X0Y3223D02*
X2562Y3223D01*
X0Y3222D02*
X2562Y3222D01*
X0Y3221D02*
X2562Y3221D01*
X0Y3220D02*
X2562Y3220D01*
X0Y3219D02*
X2562Y3219D01*
X0Y3218D02*
X2562Y3218D01*
X0Y3217D02*
X2562Y3217D01*
X0Y3216D02*
X2562Y3216D01*
X0Y3215D02*
X2562Y3215D01*
X0Y3214D02*
X2562Y3214D01*
X0Y3213D02*
X2562Y3213D01*
X0Y3212D02*
X2562Y3212D01*
X0Y3211D02*
X2562Y3211D01*
X0Y3210D02*
X2562Y3210D01*
X0Y3209D02*
X2562Y3209D01*
X0Y3208D02*
X2562Y3208D01*
X0Y3207D02*
X2562Y3207D01*
X0Y3206D02*
X2562Y3206D01*
X0Y3205D02*
X2562Y3205D01*
X0Y3204D02*
X2562Y3204D01*
X0Y3203D02*
X2562Y3203D01*
X0Y3202D02*
X2562Y3202D01*
X0Y3201D02*
X2562Y3201D01*
X0Y3200D02*
X2562Y3200D01*
X0Y3199D02*
X2562Y3199D01*
X0Y3198D02*
X2562Y3198D01*
X0Y3197D02*
X2562Y3197D01*
X0Y3196D02*
X2562Y3196D01*
X0Y3195D02*
X2562Y3195D01*
X0Y3194D02*
X2562Y3194D01*
X0Y3193D02*
X2562Y3193D01*
X0Y3192D02*
X2562Y3192D01*
X0Y3191D02*
X2562Y3191D01*
X0Y3190D02*
X2562Y3190D01*
X0Y3189D02*
X2562Y3189D01*
X0Y3188D02*
X2562Y3188D01*
X0Y3187D02*
X2562Y3187D01*
X0Y3186D02*
X2562Y3186D01*
X0Y3185D02*
X2562Y3185D01*
X0Y3184D02*
X2562Y3184D01*
X0Y3183D02*
X2562Y3183D01*
X0Y3182D02*
X2562Y3182D01*
X0Y3181D02*
X2562Y3181D01*
X0Y3180D02*
X2562Y3180D01*
X0Y3179D02*
X2562Y3179D01*
X0Y3178D02*
X2562Y3178D01*
X0Y3177D02*
X2562Y3177D01*
X0Y3176D02*
X2562Y3176D01*
X0Y3175D02*
X2562Y3175D01*
X0Y3174D02*
X2562Y3174D01*
X0Y3173D02*
X2562Y3173D01*
X0Y3172D02*
X2562Y3172D01*
X0Y3171D02*
X2562Y3171D01*
X0Y3170D02*
X2562Y3170D01*
X0Y3169D02*
X2562Y3169D01*
X0Y3168D02*
X2562Y3168D01*
X0Y3167D02*
X2562Y3167D01*
X0Y3166D02*
X2562Y3166D01*
X0Y3165D02*
X2562Y3165D01*
X0Y3164D02*
X2562Y3164D01*
X0Y3163D02*
X2562Y3163D01*
X0Y3162D02*
X2562Y3162D01*
X0Y3161D02*
X2562Y3161D01*
X0Y3160D02*
X2562Y3160D01*
X0Y3159D02*
X2562Y3159D01*
X0Y3158D02*
X2562Y3158D01*
X0Y3157D02*
X2562Y3157D01*
X0Y3156D02*
X2562Y3156D01*
X0Y3155D02*
X2562Y3155D01*
X0Y3154D02*
X2562Y3154D01*
X0Y3153D02*
X2562Y3153D01*
X0Y3152D02*
X2562Y3152D01*
X0Y3151D02*
X2562Y3151D01*
X0Y3150D02*
X2562Y3150D01*
X0Y3149D02*
X2562Y3149D01*
X0Y3148D02*
X2562Y3148D01*
X0Y3147D02*
X2562Y3147D01*
X0Y3146D02*
X2562Y3146D01*
X0Y3145D02*
X2562Y3145D01*
X0Y3144D02*
X2562Y3144D01*
X0Y3143D02*
X2562Y3143D01*
X0Y3142D02*
X2562Y3142D01*
X0Y3141D02*
X2562Y3141D01*
X0Y3140D02*
X2562Y3140D01*
X0Y3139D02*
X2562Y3139D01*
X0Y3138D02*
X2562Y3138D01*
X0Y3137D02*
X2562Y3137D01*
X0Y3136D02*
X2562Y3136D01*
X0Y3135D02*
X2562Y3135D01*
X0Y3134D02*
X2562Y3134D01*
X0Y3133D02*
X2562Y3133D01*
X0Y3132D02*
X2562Y3132D01*
X0Y3131D02*
X2562Y3131D01*
X0Y3130D02*
X2562Y3130D01*
X0Y3129D02*
X2562Y3129D01*
X0Y3128D02*
X2562Y3128D01*
X0Y3127D02*
X2562Y3127D01*
X0Y3126D02*
X2562Y3126D01*
X0Y3125D02*
X2562Y3125D01*
X0Y3124D02*
X2562Y3124D01*
X0Y3123D02*
X2562Y3123D01*
X0Y3122D02*
X2562Y3122D01*
X0Y3121D02*
X2562Y3121D01*
X0Y3120D02*
X2562Y3120D01*
X0Y3119D02*
X2562Y3119D01*
X0Y3118D02*
X2562Y3118D01*
X0Y3117D02*
X2562Y3117D01*
X0Y3116D02*
X2562Y3116D01*
X0Y3115D02*
X2562Y3115D01*
X0Y3114D02*
X2562Y3114D01*
X0Y3113D02*
X2562Y3113D01*
X0Y3112D02*
X2562Y3112D01*
X0Y3111D02*
X2562Y3111D01*
X0Y3110D02*
X2562Y3110D01*
X0Y3109D02*
X2562Y3109D01*
X0Y3108D02*
X2562Y3108D01*
X0Y3107D02*
X2562Y3107D01*
X0Y3106D02*
X2562Y3106D01*
X0Y3105D02*
X2562Y3105D01*
X0Y3104D02*
X2562Y3104D01*
X0Y3103D02*
X2562Y3103D01*
X0Y3102D02*
X2562Y3102D01*
X0Y3101D02*
X2562Y3101D01*
X0Y3100D02*
X2562Y3100D01*
X0Y3099D02*
X2562Y3099D01*
X0Y3098D02*
X2562Y3098D01*
X0Y3097D02*
X2562Y3097D01*
X0Y3096D02*
X2562Y3096D01*
X0Y3095D02*
X2562Y3095D01*
X0Y3094D02*
X2562Y3094D01*
X0Y3093D02*
X2562Y3093D01*
X0Y3092D02*
X2562Y3092D01*
X0Y3091D02*
X2562Y3091D01*
X0Y3090D02*
X2562Y3090D01*
X0Y3089D02*
X2562Y3089D01*
X0Y3088D02*
X2562Y3088D01*
X0Y3087D02*
X2562Y3087D01*
X0Y3086D02*
X2562Y3086D01*
X0Y3085D02*
X2562Y3085D01*
X0Y3084D02*
X2562Y3084D01*
X0Y3083D02*
X2562Y3083D01*
X0Y3082D02*
X2562Y3082D01*
X0Y3081D02*
X2562Y3081D01*
X0Y3080D02*
X2562Y3080D01*
X0Y3079D02*
X2562Y3079D01*
X0Y3078D02*
X2562Y3078D01*
X0Y382D02*
X2561Y382D01*
X0Y381D02*
X2561Y381D01*
X0Y380D02*
X2561Y380D01*
X0Y379D02*
X2561Y379D01*
X0Y378D02*
X2561Y378D01*
X0Y377D02*
X2561Y377D01*
X0Y376D02*
X2561Y376D01*
X0Y375D02*
X2561Y375D01*
X0Y374D02*
X2561Y374D01*
X0Y373D02*
X2561Y373D01*
X0Y372D02*
X2561Y372D01*
X0Y371D02*
X2561Y371D01*
X0Y370D02*
X2561Y370D01*
X0Y369D02*
X2561Y369D01*
X0Y368D02*
X2561Y368D01*
X0Y367D02*
X2561Y367D01*
X0Y366D02*
X2561Y366D01*
X0Y365D02*
X2561Y365D01*
X0Y364D02*
X2561Y364D01*
X0Y363D02*
X2561Y363D01*
X0Y362D02*
X2561Y362D01*
X0Y361D02*
X2561Y361D01*
X0Y360D02*
X2561Y360D01*
X0Y359D02*
X2561Y359D01*
X0Y358D02*
X2561Y358D01*
X0Y357D02*
X2561Y357D01*
X0Y356D02*
X2561Y356D01*
X0Y355D02*
X2561Y355D01*
X0Y354D02*
X2561Y354D01*
X0Y353D02*
X2561Y353D01*
X0Y352D02*
X2561Y352D01*
X0Y351D02*
X2561Y351D01*
X0Y350D02*
X2561Y350D01*
X0Y349D02*
X2561Y349D01*
X0Y348D02*
X2561Y348D01*
X0Y347D02*
X2561Y347D01*
X0Y346D02*
X2561Y346D01*
X0Y345D02*
X2561Y345D01*
X0Y344D02*
X2561Y344D01*
X0Y343D02*
X2561Y343D01*
X0Y342D02*
X2561Y342D01*
X0Y341D02*
X2561Y341D01*
X0Y340D02*
X2561Y340D01*
X0Y339D02*
X2561Y339D01*
X0Y338D02*
X2561Y338D01*
X0Y337D02*
X2561Y337D01*
X0Y336D02*
X2561Y336D01*
X0Y335D02*
X2561Y335D01*
X0Y334D02*
X2561Y334D01*
X0Y333D02*
X2561Y333D01*
X0Y332D02*
X2561Y332D01*
X0Y331D02*
X2561Y331D01*
X0Y330D02*
X2561Y330D01*
X0Y329D02*
X2561Y329D01*
X0Y328D02*
X2561Y328D01*
X0Y327D02*
X2561Y327D01*
X0Y326D02*
X2561Y326D01*
X0Y325D02*
X2561Y325D01*
X0Y324D02*
X2561Y324D01*
X0Y323D02*
X2561Y323D01*
X0Y322D02*
X2561Y322D01*
X0Y321D02*
X2561Y321D01*
X0Y320D02*
X2561Y320D01*
X0Y319D02*
X2561Y319D01*
X0Y318D02*
X2561Y318D01*
X0Y317D02*
X2561Y317D01*
X0Y316D02*
X2561Y316D01*
X0Y315D02*
X2561Y315D01*
X0Y314D02*
X2561Y314D01*
X0Y313D02*
X2561Y313D01*
X0Y312D02*
X2561Y312D01*
X0Y311D02*
X2561Y311D01*
X0Y310D02*
X2561Y310D01*
X0Y309D02*
X2561Y309D01*
X0Y308D02*
X2561Y308D01*
X0Y307D02*
X2561Y307D01*
X0Y306D02*
X2561Y306D01*
X0Y305D02*
X2561Y305D01*
X0Y304D02*
X2561Y304D01*
X0Y303D02*
X2561Y303D01*
X0Y302D02*
X2561Y302D01*
X0Y301D02*
X2561Y301D01*
X0Y300D02*
X2561Y300D01*
X0Y299D02*
X2561Y299D01*
X0Y298D02*
X2561Y298D01*
X0Y297D02*
X2561Y297D01*
X0Y296D02*
X2561Y296D01*
X0Y295D02*
X2561Y295D01*
X0Y294D02*
X2561Y294D01*
X0Y293D02*
X2561Y293D01*
X0Y292D02*
X2561Y292D01*
X0Y291D02*
X2561Y291D01*
X0Y290D02*
X2561Y290D01*
X0Y289D02*
X2561Y289D01*
X0Y288D02*
X2561Y288D01*
X0Y287D02*
X2561Y287D01*
X0Y286D02*
X2561Y286D01*
X0Y285D02*
X2561Y285D01*
X0Y284D02*
X2561Y284D01*
X0Y283D02*
X2561Y283D01*
X0Y282D02*
X2561Y282D01*
X0Y281D02*
X2561Y281D01*
X0Y280D02*
X2561Y280D01*
X0Y279D02*
X2561Y279D01*
X0Y278D02*
X2561Y278D01*
X0Y277D02*
X2561Y277D01*
X0Y276D02*
X2561Y276D01*
X0Y275D02*
X2561Y275D01*
X0Y274D02*
X2561Y274D01*
X0Y273D02*
X2561Y273D01*
X0Y272D02*
X2561Y272D01*
X0Y271D02*
X2561Y271D01*
X0Y270D02*
X2561Y270D01*
X0Y269D02*
X2561Y269D01*
X0Y268D02*
X2561Y268D01*
X0Y267D02*
X2561Y267D01*
X0Y266D02*
X2561Y266D01*
X0Y265D02*
X2561Y265D01*
X0Y264D02*
X2561Y264D01*
X0Y263D02*
X2561Y263D01*
X0Y262D02*
X2561Y262D01*
X0Y261D02*
X2561Y261D01*
X0Y260D02*
X2561Y260D01*
X0Y259D02*
X2561Y259D01*
X0Y258D02*
X2561Y258D01*
X0Y257D02*
X2561Y257D01*
X0Y256D02*
X2561Y256D01*
X0Y255D02*
X2561Y255D01*
X0Y254D02*
X2561Y254D01*
X0Y253D02*
X2561Y253D01*
X0Y252D02*
X2561Y252D01*
X0Y251D02*
X2561Y251D01*
X0Y250D02*
X2561Y250D01*
X0Y249D02*
X2561Y249D01*
X0Y248D02*
X2561Y248D01*
X0Y247D02*
X2561Y247D01*
X0Y246D02*
X2561Y246D01*
X0Y245D02*
X2561Y245D01*
X0Y244D02*
X2561Y244D01*
X0Y243D02*
X2561Y243D01*
X0Y242D02*
X2561Y242D01*
X0Y241D02*
X2561Y241D01*
X0Y240D02*
X2561Y240D01*
X0Y239D02*
X2561Y239D01*
X0Y238D02*
X2561Y238D01*
X0Y237D02*
X2561Y237D01*
X0Y236D02*
X2561Y236D01*
X0Y235D02*
X2561Y235D01*
X0Y234D02*
X2561Y234D01*
X0Y233D02*
X2561Y233D01*
X0Y232D02*
X2561Y232D01*
X0Y231D02*
X2561Y231D01*
X0Y230D02*
X2561Y230D01*
X0Y229D02*
X2561Y229D01*
X0Y228D02*
X2561Y228D01*
X0Y227D02*
X2561Y227D01*
X0Y226D02*
X2561Y226D01*
X0Y225D02*
X2561Y225D01*
X0Y224D02*
X2561Y224D01*
X0Y223D02*
X2561Y223D01*
X0Y222D02*
X2561Y222D01*
X0Y221D02*
X2561Y221D01*
X0Y220D02*
X2561Y220D01*
X0Y219D02*
X2561Y219D01*
X0Y218D02*
X2561Y218D01*
X0Y217D02*
X2561Y217D01*
X0Y216D02*
X2561Y216D01*
X0Y215D02*
X2561Y215D01*
X0Y214D02*
X2561Y214D01*
X0Y213D02*
X2561Y213D01*
X0Y212D02*
X2561Y212D01*
X0Y211D02*
X2561Y211D01*
X0Y210D02*
X2561Y210D01*
X0Y209D02*
X2561Y209D01*
X0Y208D02*
X2561Y208D01*
X0Y207D02*
X2561Y207D01*
X0Y206D02*
X2561Y206D01*
X0Y205D02*
X2561Y205D01*
X0Y204D02*
X2561Y204D01*
X0Y203D02*
X2561Y203D01*
X0Y202D02*
X2561Y202D01*
X0Y201D02*
X2561Y201D01*
X0Y200D02*
X2561Y200D01*
X0Y199D02*
X2561Y199D01*
X0Y198D02*
X2561Y198D01*
X0Y197D02*
X2561Y197D01*
X0Y196D02*
X2561Y196D01*
X0Y195D02*
X2561Y195D01*
X0Y194D02*
X2561Y194D01*
X0Y193D02*
X2561Y193D01*
X0Y192D02*
X2561Y192D01*
X0Y191D02*
X2561Y191D01*
X0Y190D02*
X2561Y190D01*
X0Y189D02*
X2561Y189D01*
X0Y188D02*
X2561Y188D01*
X0Y187D02*
X2561Y187D01*
X0Y186D02*
X2561Y186D01*
X0Y185D02*
X2561Y185D01*
X0Y184D02*
X2561Y184D01*
X0Y183D02*
X2561Y183D01*
X0Y182D02*
X2561Y182D01*
X0Y181D02*
X2561Y181D01*
X0Y180D02*
X2561Y180D01*
X0Y179D02*
X2561Y179D01*
X0Y178D02*
X2561Y178D01*
X0Y177D02*
X2561Y177D01*
X0Y176D02*
X2561Y176D01*
X0Y175D02*
X2561Y175D01*
X0Y174D02*
X2561Y174D01*
X0Y173D02*
X2561Y173D01*
X0Y172D02*
X2561Y172D01*
X0Y171D02*
X2561Y171D01*
X0Y170D02*
X2561Y170D01*
X0Y169D02*
X2561Y169D01*
X0Y168D02*
X2561Y168D01*
X0Y167D02*
X2561Y167D01*
X0Y166D02*
X2561Y166D01*
X0Y165D02*
X2561Y165D01*
X0Y164D02*
X2561Y164D01*
X0Y163D02*
X2561Y163D01*
X0Y162D02*
X2561Y162D01*
X0Y161D02*
X2561Y161D01*
X0Y160D02*
X2561Y160D01*
X0Y159D02*
X2561Y159D01*
X0Y158D02*
X2561Y158D01*
X0Y157D02*
X2561Y157D01*
X0Y156D02*
X2561Y156D01*
X0Y155D02*
X2561Y155D01*
X0Y154D02*
X2561Y154D01*
X0Y153D02*
X2561Y153D01*
X0Y152D02*
X2561Y152D01*
X0Y151D02*
X2561Y151D01*
X0Y150D02*
X2561Y150D01*
X0Y149D02*
X2561Y149D01*
X0Y148D02*
X2561Y148D01*
X0Y147D02*
X2561Y147D01*
X0Y146D02*
X2561Y146D01*
X0Y145D02*
X2561Y145D01*
X0Y144D02*
X2561Y144D01*
X0Y143D02*
X2561Y143D01*
X0Y142D02*
X2561Y142D01*
X0Y141D02*
X2561Y141D01*
X0Y140D02*
X2561Y140D01*
X0Y139D02*
X2561Y139D01*
X0Y138D02*
X2561Y138D01*
X0Y137D02*
X2561Y137D01*
X0Y136D02*
X2561Y136D01*
X0Y135D02*
X2561Y135D01*
X0Y134D02*
X2561Y134D01*
X0Y133D02*
X2561Y133D01*
X0Y132D02*
X2561Y132D01*
X0Y131D02*
X2561Y131D01*
X0Y130D02*
X2561Y130D01*
X0Y129D02*
X2561Y129D01*
X0Y128D02*
X2561Y128D01*
X0Y127D02*
X2561Y127D01*
X0Y126D02*
X2561Y126D01*
X0Y125D02*
X2561Y125D01*
X0Y124D02*
X2561Y124D01*
X0Y123D02*
X2561Y123D01*
X0Y122D02*
X2561Y122D01*
X0Y121D02*
X2561Y121D01*
X0Y120D02*
X2561Y120D01*
X0Y119D02*
X2561Y119D01*
X0Y118D02*
X2561Y118D01*
X0Y117D02*
X2561Y117D01*
X0Y116D02*
X2561Y116D01*
X0Y115D02*
X2561Y115D01*
X0Y114D02*
X2561Y114D01*
X0Y113D02*
X2561Y113D01*
X0Y112D02*
X2561Y112D01*
X0Y111D02*
X2561Y111D01*
X0Y110D02*
X2561Y110D01*
X0Y109D02*
X2561Y109D01*
X0Y108D02*
X2561Y108D01*
X0Y107D02*
X2561Y107D01*
X0Y106D02*
X2561Y106D01*
X0Y105D02*
X2561Y105D01*
X0Y104D02*
X2561Y104D01*
X0Y103D02*
X2561Y103D01*
X0Y102D02*
X2561Y102D01*
X0Y101D02*
X2561Y101D01*
X0Y100D02*
X2561Y100D01*
X0Y99D02*
X2561Y99D01*
X0Y98D02*
X2561Y98D01*
X0Y97D02*
X2561Y97D01*
X0Y96D02*
X2561Y96D01*
X0Y95D02*
X2561Y95D01*
X0Y94D02*
X2561Y94D01*
X0Y93D02*
X2561Y93D01*
X0Y92D02*
X2561Y92D01*
X0Y91D02*
X2561Y91D01*
X0Y90D02*
X2561Y90D01*
X0Y89D02*
X2561Y89D01*
X0Y88D02*
X2561Y88D01*
X0Y87D02*
X2561Y87D01*
X0Y86D02*
X2561Y86D01*
X0Y85D02*
X2561Y85D01*
X0Y84D02*
X2561Y84D01*
X0Y83D02*
X2561Y83D01*
X0Y82D02*
X2561Y82D01*
X0Y81D02*
X2561Y81D01*
X0Y80D02*
X2561Y80D01*
X0Y79D02*
X2561Y79D01*
X0Y78D02*
X2561Y78D01*
X0Y77D02*
X2561Y77D01*
X0Y76D02*
X2561Y76D01*
X0Y75D02*
X2561Y75D01*
X0Y74D02*
X2561Y74D01*
X0Y73D02*
X2561Y73D01*
X0Y72D02*
X2561Y72D01*
X0Y71D02*
X2561Y71D01*
X0Y70D02*
X2561Y70D01*
X0Y69D02*
X2561Y69D01*
X0Y68D02*
X2561Y68D01*
X0Y67D02*
X2561Y67D01*
X0Y66D02*
X2561Y66D01*
X0Y65D02*
X2561Y65D01*
X0Y64D02*
X2561Y64D01*
X0Y63D02*
X2561Y63D01*
X0Y62D02*
X2561Y62D01*
X0Y61D02*
X2561Y61D01*
X0Y60D02*
X2561Y60D01*
X0Y59D02*
X2561Y59D01*
X0Y58D02*
X2561Y58D01*
X0Y57D02*
X2561Y57D01*
X0Y56D02*
X2561Y56D01*
X0Y55D02*
X2561Y55D01*
X0Y54D02*
X2561Y54D01*
X0Y53D02*
X2561Y53D01*
X0Y52D02*
X2561Y52D01*
X0Y51D02*
X2561Y51D01*
X0Y50D02*
X2561Y50D01*
X0Y49D02*
X2561Y49D01*
X0Y48D02*
X2561Y48D01*
X0Y47D02*
X2561Y47D01*
X0Y46D02*
X2561Y46D01*
X0Y45D02*
X2561Y45D01*
X0Y44D02*
X2561Y44D01*
X0Y43D02*
X2561Y43D01*
X0Y42D02*
X2561Y42D01*
X0Y41D02*
X2561Y41D01*
X0Y40D02*
X2561Y40D01*
X0Y39D02*
X2561Y39D01*
X0Y38D02*
X2561Y38D01*
X0Y37D02*
X2561Y37D01*
X0Y36D02*
X2561Y36D01*
X0Y35D02*
X2561Y35D01*
X0Y34D02*
X2561Y34D01*
X0Y33D02*
X2561Y33D01*
X0Y32D02*
X2561Y32D01*
X0Y31D02*
X2561Y31D01*
X0Y30D02*
X2561Y30D01*
X0Y29D02*
X2561Y29D01*
X0Y28D02*
X2561Y28D01*
X0Y27D02*
X2561Y27D01*
X0Y26D02*
X2561Y26D01*
X0Y25D02*
X2561Y25D01*
X0Y24D02*
X2561Y24D01*
X0Y23D02*
X2561Y23D01*
X0Y22D02*
X2561Y22D01*
X0Y21D02*
X2561Y21D01*
X0Y20D02*
X2561Y20D01*
X0Y19D02*
X2561Y19D01*
X0Y18D02*
X2561Y18D01*
X0Y17D02*
X2561Y17D01*
X0Y16D02*
X2561Y16D01*
X0Y15D02*
X2561Y15D01*
X0Y14D02*
X2561Y14D01*
X0Y13D02*
X2561Y13D01*
X0Y12D02*
X2561Y12D01*
X0Y11D02*
X2561Y11D01*
X0Y10D02*
X2561Y10D01*
X0Y9D02*
X2561Y9D01*
X0Y8D02*
X2561Y8D01*
X0Y7D02*
X2561Y7D01*
X0Y6D02*
X2561Y6D01*
X0Y5D02*
X2561Y5D01*
X0Y4D02*
X2561Y4D01*
X0Y3D02*
X2561Y3D01*
X0Y2D02*
X2561Y2D01*
X0Y1D02*
X2561Y1D01*
X0Y0D02*
X2561Y0D01*
D02*
G04 End of Mask0*
M02*